<svg width="263" height="44" viewBox="0 0 263 44" fill="none" xmlns="http://www.w3.org/2000/svg">
<g clip-path="url(#clip0_316_788)">
<path d="M29.8109 25.9002C29.3797 26.858 29.1719 27.2861 28.6172 28.1315C27.8406 29.3127 26.7453 30.7877 25.3922 30.7971C24.1875 30.808 23.8766 30.0111 22.2406 30.0252C20.6063 30.033 20.2656 30.8127 19.0594 30.8002C17.7047 30.7877 16.6688 29.4596 15.8922 28.2799C13.7203 24.9721 13.4906 21.094 14.8328 19.0315C15.7828 17.569 17.2844 16.7096 18.6953 16.7096C20.1328 16.7096 21.0359 17.4986 22.2234 17.4986C23.3766 17.4986 24.0781 16.708 25.7406 16.708C26.9969 16.708 28.325 17.3924 29.275 18.5736C26.1688 20.2768 26.6734 24.7127 29.8109 25.9002V25.9002ZM24.4781 15.3877C25.0828 14.6111 25.5422 13.5158 25.375 12.4002C24.3891 12.4674 23.2359 13.0971 22.5625 13.9127C21.9516 14.6565 21.4453 15.7596 21.6422 16.8268C22.7188 16.8611 23.8328 16.219 24.4781 15.3877H24.4781Z" fill="white"/>
</g>
<path d="M43.724 15.9902H46.16L49.464 26.0002H47.532L46.734 23.5222H42.912L42.128 26.0002H40.378L43.724 15.9902ZM43.346 22.1642H46.3L44.83 17.5162L43.346 22.1642ZM50.9064 18.6782H52.6004V19.8542C52.8151 19.4808 53.1371 19.1682 53.5664 18.9162C54.0051 18.6548 54.4811 18.5242 54.9944 18.5242C55.9371 18.5242 56.7118 18.8602 57.3184 19.5322C57.9344 20.1948 58.2424 21.1002 58.2424 22.2482V22.3602C58.2424 23.5175 57.9391 24.4368 57.3324 25.1182C56.7351 25.7995 55.9558 26.1402 54.9944 26.1402C54.4344 26.1402 53.9444 26.0235 53.5244 25.7902C53.1138 25.5475 52.8058 25.2348 52.6004 24.8522V28.5062H50.9064V18.6782ZM54.5744 24.7962C55.1998 24.7962 55.6758 24.5908 56.0024 24.1802C56.3384 23.7695 56.5064 23.1722 56.5064 22.3882V22.2762C56.5064 21.4922 56.3244 20.8948 55.9604 20.4842C55.6058 20.0642 55.1391 19.8542 54.5604 19.8542C53.9444 19.8542 53.4544 20.0595 53.0904 20.4702C52.7264 20.8808 52.5444 21.4828 52.5444 22.2762V22.3882C52.5444 23.1815 52.7218 23.7835 53.0764 24.1942C53.4404 24.5955 53.9398 24.7962 54.5744 24.7962ZM59.8205 18.6782H61.5145V19.8542C61.7292 19.4808 62.0512 19.1682 62.4805 18.9162C62.9192 18.6548 63.3952 18.5242 63.9085 18.5242C64.8512 18.5242 65.6258 18.8602 66.2325 19.5322C66.8485 20.1948 67.1565 21.1002 67.1565 22.2482V22.3602C67.1565 23.5175 66.8532 24.4368 66.2465 25.1182C65.6492 25.7995 64.8698 26.1402 63.9085 26.1402C63.3485 26.1402 62.8585 26.0235 62.4385 25.7902C62.0278 25.5475 61.7198 25.2348 61.5145 24.8522V28.5062H59.8205V18.6782ZM63.4885 24.7962C64.1138 24.7962 64.5898 24.5908 64.9165 24.1802C65.2525 23.7695 65.4205 23.1722 65.4205 22.3882V22.2762C65.4205 21.4922 65.2385 20.8948 64.8745 20.4842C64.5198 20.0642 64.0532 19.8542 63.4745 19.8542C62.8585 19.8542 62.3685 20.0595 62.0045 20.4702C61.6405 20.8808 61.4585 21.4828 61.4585 22.2762V22.3882C61.4585 23.1815 61.6358 23.7835 61.9905 24.1942C62.3545 24.5955 62.8538 24.7962 63.4885 24.7962ZM75.6672 26.1402C74.3699 26.1402 73.3945 25.8508 72.7412 25.2722C72.0972 24.6935 71.7332 23.9002 71.6492 22.8922H73.4412C73.5065 23.4708 73.6979 23.9235 74.0152 24.2502C74.3419 24.5768 74.8925 24.7402 75.6672 24.7402C76.2272 24.7402 76.6799 24.6002 77.0252 24.3202C77.3799 24.0402 77.5572 23.6668 77.5572 23.2002C77.5572 22.7335 77.4125 22.3928 77.1232 22.1782C76.8339 21.9635 76.2832 21.7908 75.4712 21.6602C74.2299 21.4828 73.3292 21.1795 72.7692 20.7502C72.2185 20.3208 71.9432 19.6488 71.9432 18.7342C71.9432 17.9035 72.2652 17.2175 72.9092 16.6762C73.5532 16.1348 74.3932 15.8642 75.4292 15.8642C77.6412 15.8642 78.8545 16.8302 79.0692 18.7622H77.3612C77.2679 18.2302 77.0672 17.8475 76.7592 17.6142C76.4605 17.3808 76.0172 17.2642 75.4292 17.2642C74.8785 17.2642 74.4539 17.3855 74.1552 17.6282C73.8565 17.8615 73.7072 18.1788 73.7072 18.5802C73.7072 19.0188 73.8425 19.3455 74.1132 19.5602C74.3932 19.7655 74.9485 19.9288 75.7792 20.0502C77.0299 20.2275 77.9352 20.5308 78.4952 20.9602C79.0645 21.3895 79.3492 22.0848 79.3492 23.0462C79.3492 23.9235 79.0039 24.6608 78.3132 25.2582C77.6319 25.8462 76.7499 26.1402 75.6672 26.1402ZM83.5586 26.1262C82.8306 26.1262 82.2799 25.9395 81.9066 25.5662C81.5333 25.1928 81.3466 24.6562 81.3466 23.9562V19.9522H80.3666V18.6782H81.3466V17.0682H83.0406V18.6782H84.6506V19.9522H83.0406V23.8022C83.0406 24.4275 83.3206 24.7402 83.8806 24.7402C84.2166 24.7402 84.4919 24.6935 84.7066 24.6002V25.9442C84.3799 26.0655 83.9973 26.1262 83.5586 26.1262ZM89.5653 24.8242C90.1999 24.8242 90.6946 24.6095 91.0493 24.1802C91.4039 23.7415 91.5813 23.1442 91.5813 22.3882V22.2902C91.5813 21.5342 91.4039 20.9415 91.0493 20.5122C90.6946 20.0735 90.1999 19.8542 89.5653 19.8542C88.9306 19.8542 88.4313 20.0688 88.0673 20.4982C87.7126 20.9275 87.5353 21.5202 87.5353 22.2762V22.3882C87.5353 23.1442 87.7126 23.7415 88.0673 24.1802C88.4219 24.6095 88.9213 24.8242 89.5653 24.8242ZM92.2533 25.1042C91.5439 25.7948 90.6433 26.1402 89.5513 26.1402C88.4593 26.1402 87.5586 25.7995 86.8493 25.1182C86.1493 24.4275 85.7993 23.5268 85.7993 22.4162V22.3042C85.7993 21.1842 86.1539 20.2742 86.8633 19.5742C87.5726 18.8742 88.4733 18.5242 89.5653 18.5242C90.6479 18.5242 91.5439 18.8695 92.2533 19.5602C92.9626 20.2508 93.3173 21.1515 93.3173 22.2622V22.3742C93.3173 23.5035 92.9626 24.4135 92.2533 25.1042ZM94.9025 18.6782H96.5965V20.0502C97.0819 19.0702 97.8752 18.5755 98.9765 18.5662V20.1482C98.1925 20.1482 97.5999 20.3068 97.1985 20.6242C96.7972 20.9322 96.5965 21.4548 96.5965 22.1922V26.0002H94.9025V18.6782ZM103.605 26.1402C102.504 26.1402 101.608 25.8042 100.917 25.1322C100.236 24.4602 99.895 23.5548 99.895 22.4162V22.3042C99.895 21.1842 100.236 20.2742 100.917 19.5742C101.608 18.8742 102.48 18.5242 103.535 18.5242C104.524 18.5242 105.346 18.8322 105.999 19.4482C106.662 20.0642 106.993 20.9882 106.993 22.2202V22.7102H101.631C101.659 23.4102 101.841 23.9468 102.177 24.3202C102.522 24.6935 103.012 24.8802 103.647 24.8802C104.636 24.8802 105.196 24.5068 105.327 23.7602H106.965C106.844 24.5348 106.489 25.1275 105.901 25.5382C105.322 25.9395 104.557 26.1402 103.605 26.1402ZM105.313 21.5762C105.22 20.3628 104.627 19.7562 103.535 19.7562C103.031 19.7562 102.611 19.9195 102.275 20.2462C101.948 20.5635 101.743 21.0068 101.659 21.5762H105.313Z" fill="white"/>
<rect x="1" y="1.00018" width="118" height="42" rx="7" stroke="white" stroke-opacity="0.2" stroke-width="2"/>
<g clip-path="url(#clip1_316_788)">
<path d="M144.85 12.8002L153.512 21.4002L155.887 19.0252L145.387 12.9627C145.212 12.8611 145.025 12.8049 144.85 12.8002ZM144.125 13.2002C144.047 13.3392 144 13.5033 144 13.6877V30.4002C144 30.5345 144.028 30.6549 144.075 30.7627L152.938 21.9627L144.125 13.2002ZM156.612 19.4377L154.075 21.9627L156.612 24.4752L159.712 22.7002C160.153 22.4455 160.216 22.122 160.212 21.9502C160.208 21.6658 160.028 21.4002 159.725 21.2377C159.461 21.0955 157.5 19.9533 156.612 19.4377ZM153.512 22.5252L144.775 31.1877C144.92 31.1799 145.078 31.1486 145.225 31.0627C145.567 30.8642 152.487 26.8627 152.487 26.8627L155.9 24.9002L153.512 22.5252Z" fill="white"/>
</g>
<path d="M175.642 26.1402C174.074 26.1402 172.847 25.6735 171.96 24.7402C171.083 23.7975 170.644 22.5702 170.644 21.0582V20.9462C170.644 19.4528 171.111 18.2302 172.044 17.2782C172.977 16.3168 174.177 15.8362 175.642 15.8362C176.799 15.8362 177.775 16.1162 178.568 16.6762C179.371 17.2362 179.833 18.0808 179.954 19.2102H178.092C177.877 17.9408 177.07 17.3062 175.67 17.3062C174.699 17.3062 173.939 17.6375 173.388 18.3002C172.847 18.9628 172.576 19.8495 172.576 20.9602V21.0722C172.576 22.1735 172.837 23.0508 173.36 23.7042C173.892 24.3575 174.662 24.6842 175.67 24.6842C176.557 24.6842 177.219 24.4555 177.658 23.9982C178.097 23.5315 178.335 22.9202 178.372 22.1642H175.852V20.7642H180.206V21.6882C180.206 23.0695 179.8 24.1568 178.988 24.9502C178.176 25.7435 177.061 26.1402 175.642 26.1402ZM185.194 24.8242C185.829 24.8242 186.323 24.6095 186.678 24.1802C187.033 23.7415 187.21 23.1442 187.21 22.3882V22.2902C187.21 21.5342 187.033 20.9415 186.678 20.5122C186.323 20.0735 185.829 19.8542 185.194 19.8542C184.559 19.8542 184.06 20.0688 183.696 20.4982C183.341 20.9275 183.164 21.5202 183.164 22.2762V22.3882C183.164 23.1442 183.341 23.7415 183.696 24.1802C184.051 24.6095 184.55 24.8242 185.194 24.8242ZM187.882 25.1042C187.173 25.7948 186.272 26.1402 185.18 26.1402C184.088 26.1402 183.187 25.7995 182.478 25.1182C181.778 24.4275 181.428 23.5268 181.428 22.4162V22.3042C181.428 21.1842 181.783 20.2742 182.492 19.5742C183.201 18.8742 184.102 18.5242 185.194 18.5242C186.277 18.5242 187.173 18.8695 187.882 19.5602C188.591 20.2508 188.946 21.1515 188.946 22.2622V22.3742C188.946 23.5035 188.591 24.4135 187.882 25.1042ZM193.807 24.8242C194.442 24.8242 194.937 24.6095 195.291 24.1802C195.646 23.7415 195.823 23.1442 195.823 22.3882V22.2902C195.823 21.5342 195.646 20.9415 195.291 20.5122C194.937 20.0735 194.442 19.8542 193.807 19.8542C193.173 19.8542 192.673 20.0688 192.309 20.4982C191.955 20.9275 191.777 21.5202 191.777 22.2762V22.3882C191.777 23.1442 191.955 23.7415 192.309 24.1802C192.664 24.6095 193.163 24.8242 193.807 24.8242ZM196.495 25.1042C195.786 25.7948 194.885 26.1402 193.793 26.1402C192.701 26.1402 191.801 25.7995 191.091 25.1182C190.391 24.4275 190.041 23.5268 190.041 22.4162V22.3042C190.041 21.1842 190.396 20.2742 191.105 19.5742C191.815 18.8742 192.715 18.5242 193.807 18.5242C194.89 18.5242 195.786 18.8695 196.495 19.5602C197.205 20.2508 197.559 21.1515 197.559 22.2622V22.3742C197.559 23.5035 197.205 24.4135 196.495 25.1042ZM202.267 28.6882C201.175 28.6882 200.335 28.4688 199.747 28.0302C199.168 27.5915 198.832 26.9988 198.739 26.2522H200.447C200.605 27.0175 201.207 27.4002 202.253 27.4002C203.615 27.4002 204.297 26.7422 204.297 25.4262V24.3482C204.082 24.7215 203.755 25.0435 203.317 25.3142C202.887 25.5755 202.416 25.7062 201.903 25.7062C200.969 25.7062 200.195 25.3888 199.579 24.7542C198.963 24.1102 198.655 23.2655 198.655 22.2202V22.1222C198.655 21.0862 198.963 20.2275 199.579 19.5462C200.204 18.8648 200.993 18.5242 201.945 18.5242C203.009 18.5242 203.793 18.9488 204.297 19.7982V18.6782H205.991V25.4542C205.981 26.5182 205.65 27.3208 204.997 27.8622C204.343 28.4128 203.433 28.6882 202.267 28.6882ZM202.323 24.4042C202.92 24.4042 203.405 24.2035 203.779 23.8022C204.161 23.4008 204.353 22.8548 204.353 22.1642V22.0662C204.353 21.3662 204.175 20.8248 203.821 20.4422C203.475 20.0502 202.995 19.8542 202.379 19.8542C201.753 19.8542 201.263 20.0595 200.909 20.4702C200.563 20.8715 200.391 21.4128 200.391 22.0942V22.2062C200.391 22.8688 200.573 23.4008 200.937 23.8022C201.301 24.2035 201.763 24.4042 202.323 24.4042ZM208.101 15.2902H209.795V26.0002H208.101V15.2902ZM215.134 26.1402C214.033 26.1402 213.137 25.8042 212.446 25.1322C211.765 24.4602 211.424 23.5548 211.424 22.4162V22.3042C211.424 21.1842 211.765 20.2742 212.446 19.5742C213.137 18.8742 214.01 18.5242 215.064 18.5242C216.054 18.5242 216.875 18.8322 217.528 19.4482C218.191 20.0642 218.522 20.9882 218.522 22.2202V22.7102H213.16C213.188 23.4102 213.37 23.9468 213.706 24.3202C214.052 24.6935 214.542 24.8802 215.176 24.8802C216.166 24.8802 216.726 24.5068 216.856 23.7602H218.494C218.373 24.5348 218.018 25.1275 217.43 25.5382C216.852 25.9395 216.086 26.1402 215.134 26.1402ZM216.842 21.5762C216.749 20.3628 216.156 19.7562 215.064 19.7562C214.56 19.7562 214.14 19.9195 213.804 20.2462C213.478 20.5635 213.272 21.0068 213.188 21.5762H216.842ZM223.621 15.9902H226.841C227.998 15.9902 228.903 16.2515 229.557 16.7742C230.219 17.2968 230.551 18.0668 230.551 19.0842V19.1402C230.551 20.1575 230.219 20.9228 229.557 21.4362C228.894 21.9402 228.003 22.1922 226.883 22.1922H225.483V26.0002H223.621V15.9902ZM226.841 20.8482C228.101 20.8482 228.731 20.2788 228.731 19.1402V19.0842C228.731 17.9828 228.101 17.4322 226.841 17.4322H225.483V20.8482H226.841ZM232.109 15.2902H233.803V26.0002H232.109V15.2902ZM237.84 26.1402C237.121 26.1402 236.533 25.9628 236.076 25.6082C235.619 25.2442 235.39 24.6982 235.39 23.9702C235.39 23.1675 235.731 22.5795 236.412 22.2062C237.103 21.8328 238.013 21.6462 239.142 21.6462H240.052V21.2682C240.052 20.7548 239.954 20.3815 239.758 20.1482C239.562 19.9148 239.217 19.7982 238.722 19.7982C237.891 19.7982 237.425 20.1808 237.322 20.9462H235.684C235.759 20.1342 236.081 19.5275 236.65 19.1262C237.219 18.7248 237.943 18.5242 238.82 18.5242C240.771 18.5242 241.746 19.4155 241.746 21.1982V26.0002H240.08V25.1042C239.539 25.7948 238.792 26.1402 237.84 26.1402ZM238.246 24.9222C238.787 24.9222 239.221 24.7915 239.548 24.5302C239.884 24.2688 240.052 23.9048 240.052 23.4382V22.7102H239.184C237.775 22.7102 237.07 23.1068 237.07 23.9002C237.07 24.5815 237.462 24.9222 238.246 24.9222ZM245.679 25.2582L242.781 18.6782H244.615L246.561 23.3962L248.353 18.6782H250.005L246.015 28.5062H244.349L245.679 25.2582Z" fill="white"/>
<rect x="131" y="1.00018" width="131" height="42" rx="7" stroke="white" stroke-opacity="0.2" stroke-width="2"/>
<defs>
<clipPath id="clip0_316_788">
<rect width="20" height="20" fill="white" transform="translate(12 12.0002)"/>
</clipPath>
<clipPath id="clip1_316_788">
<rect width="20" height="20" fill="white" transform="translate(142 12.0002)"/>
</clipPath>
</defs>
</svg>
