<svg width="90" height="90" viewBox="0 0 90 90" fill="none" xmlns="http://www.w3.org/2000/svg">
<g filter="url(#filter0_f_1_894)">
<circle cx="45" cy="45" r="30" fill="#EAEAEA"/>
</g>
<path d="M44.7157 56.3C42.2157 56.3 40.2657 55.67 38.8657 54.41C37.4657 53.15 36.7257 51.47 36.6457 49.37H40.2757C40.3957 50.57 40.8057 51.53 41.5057 52.25C42.2057 52.95 43.2457 53.3 44.6257 53.3C47.3457 53.3 48.7057 52.14 48.7057 49.82C48.7057 47.48 47.4157 46.31 44.8357 46.31H43.1857V43.46H44.7157C47.0957 43.46 48.2857 42.41 48.2857 40.31C48.2857 39.39 47.9957 38.66 47.4157 38.12C46.8557 37.56 46.0357 37.28 44.9557 37.28C43.8357 37.28 42.9157 37.6 42.1957 38.24C41.4957 38.86 41.0857 39.72 40.9657 40.82H37.4257C37.5457 38.9 38.2757 37.33 39.6157 36.11C40.9757 34.87 42.7757 34.25 45.0157 34.25C47.1957 34.25 48.9157 34.8 50.1757 35.9C51.4557 36.98 52.0957 38.35 52.0957 40.01C52.0957 42.23 50.9357 43.79 48.6157 44.69C49.9157 44.99 50.9257 45.58 51.6457 46.46C52.3857 47.34 52.7557 48.48 52.7557 49.88C52.7557 51.86 52.0257 53.43 50.5657 54.59C49.1257 55.73 47.1757 56.3 44.7157 56.3Z" fill="#555A64"/>
<defs>
<filter id="filter0_f_1_894" x="0" y="0" width="90" height="90" filterUnits="userSpaceOnUse" color-interpolation-filters="sRGB">
<feFlood flood-opacity="0" result="BackgroundImageFix"/>
<feBlend mode="normal" in="SourceGraphic" in2="BackgroundImageFix" result="shape"/>
<feGaussianBlur stdDeviation="7.5" result="effect1_foregroundBlur_1_894"/>
</filter>
</defs>
</svg>
