<svg width="49" height="16" viewBox="0 0 49 16" fill="none" xmlns="http://www.w3.org/2000/svg">
<path d="M18.6018 0.305028L12.19 15.7573H8.00677L4.85148 3.42567C4.65992 2.66612 4.49336 2.38786 3.91077 2.06786C2.95959 1.54664 1.38883 1.05762 0.00683594 0.75411L0.100704 0.305028H6.83444C7.69277 0.305028 8.46437 0.88216 8.65925 1.88055L10.3257 10.822L14.4441 0.30477H18.6018V0.305028ZM34.9925 10.7122C35.0093 6.63392 29.4094 6.40924 29.4479 4.58741C29.4599 4.03295 29.9825 3.44345 31.1266 3.29298C31.6936 3.21801 33.2559 3.16081 35.0279 3.98451L35.723 0.707732C34.7708 0.358617 33.5457 0.022644 32.0214 0.022644C28.1098 0.022644 25.357 2.123 25.3338 5.13053C25.3085 7.35507 27.2986 8.59643 28.798 9.33562C30.3404 10.0926 30.858 10.579 30.8521 11.2561C30.8411 12.2927 29.6219 12.7502 28.4824 12.7683C26.4934 12.7992 25.3391 12.2246 24.4191 11.7926L23.7018 15.1778C24.6265 15.6063 26.3332 15.9801 28.1026 15.9989C32.2601 15.9989 34.9797 13.9246 34.9925 10.7122ZM45.3215 15.7573H48.9816L45.7868 0.305028H42.4085C41.6489 0.305028 41.0082 0.751791 40.7245 1.43868L34.7861 15.7573H38.9416L39.7665 13.4492H44.8437L45.3215 15.7573ZM40.9059 10.2822L42.9888 4.48049L44.1877 10.2822H40.9059ZM24.2561 0.305028L20.9837 15.7573H17.0265L20.3001 0.305028H24.2561Z" fill="white"/>
</svg>
